# xmcd
#
# Track frame offsets: 
#        150
#        19507
#        37695
#        51315
#        66490
#        84234
#        103110
#        119226
#        135586
#        155088
#
# Disc length: 2290 seconds
#
# Revision: 2
# Processed by: cddbd v1.5.2PL0 Copyright (c) Steve Scherf et al.
# Submitted via: ExactAudioCopyFreeDBPlugin 1.0
#
DISCID=8508f00a
DTITLE=Rodney Crowell - But What Will The Neighbors Think
DYEAR=1980
DGENRE=Country
TTITLE0=Here Come The 80s
TTITLE1=Aint No Money
TTITLE2=Oh What A Feeling
TTITLE3=It's Only Rock 'N' Roll
TTITLE4=On A Real Good Night
TTITLE5=Ashes By Now
TTITLE6=Heartbroke
TTITLE7=Queen Of Hearts
TTITLE8=Blues In The Daytime
TTITLE9=The One About England
EXTD=
EXTT0=
EXTT1=
EXTT2=
EXTT3=
EXTT4=
EXTT5=
EXTT6=
EXTT7=
EXTT8=
EXTT9=
PLAYORDER=
